<?xml version="1.0" standalone="no"?>
<!DOCTYPE svg PUBLIC "-//W3C//DTD SVG 20010904//EN"
 "http://www.w3.org/TR/2001/REC-SVG-20010904/DTD/svg10.dtd">
<svg version="1.0" xmlns="http://www.w3.org/2000/svg"
 width="500.000000pt" height="500.000000pt" viewBox="0 0 500.000000 500.000000"
 preserveAspectRatio="xMidYMid meet">

<g transform="translate(0.000000,500.000000) scale(0.100000,-0.100000)"
fill="#000000" stroke="none">
<path d="M2532 3553 c-116 -73 -234 -183 -277 -258 -34 -59 -36 -122 -7 -187
34 -76 99 -112 180 -102 165 22 379 80 442 119 47 30 74 67 66 92 -9 26 -76
79 -156 123 l-69 38 -35 -24 c-32 -22 -35 -28 -29 -57 3 -17 12 -39 19 -48 8
-9 11 -19 7 -22 -3 -4 0 -7 7 -7 10 0 11 -3 4 -10 -14 -14 -183 -52 -258 -57
-97 -8 -96 15 8 126 64 67 149 128 248 177 76 37 77 38 74 73 -2 29 -10 41
-42 63 -21 15 -48 27 -59 27 -11 0 -67 -30 -123 -66z"/>
<path d="M1867 2781 c-116 -60 -197 -129 -197 -167 0 -29 -73 -226 -111 -297
-17 -31 -41 -87 -54 -125 -12 -37 -51 -130 -84 -207 -99 -224 -117 -302 -78
-327 21 -13 90 -8 145 11 59 20 104 59 165 141 50 67 204 218 231 226 28 9
123 82 130 99 6 18 353 315 390 334 23 13 28 13 42 -1 14 -13 12 -25 -11 -117
-31 -122 -33 -137 -43 -271 -11 -139 -2 -186 43 -227 61 -57 75 -51 235 100
78 72 156 138 173 146 48 20 125 77 194 145 l63 60 -6 -99 c-3 -55 -8 -103
-10 -107 -9 -14 28 -273 41 -294 8 -12 24 -24 37 -27 13 -3 37 -11 54 -18 28
-11 38 -10 85 10 30 13 77 40 104 61 28 21 61 43 74 50 32 16 69 58 86 96 8
17 27 39 42 49 15 10 44 36 63 58 33 39 124 113 313 257 83 63 104 94 73 106
-19 7 -88 -29 -134 -70 -20 -18 -59 -45 -87 -59 -27 -14 -73 -45 -102 -70 -71
-61 -226 -168 -290 -201 -29 -14 -68 -26 -87 -26 l-34 0 -7 59 c-5 44 -2 73
13 122 36 117 67 300 54 318 -7 9 -20 32 -31 51 -11 19 -34 52 -53 74 -52 59
-75 50 -217 -93 -130 -131 -283 -274 -330 -309 -17 -13 -38 -21 -46 -18 -8 3
-25 27 -37 53 -26 52 -25 71 7 249 21 112 20 120 -21 180 -49 75 -101 100
-150 71 -12 -6 -40 -22 -62 -35 -23 -12 -70 -48 -104 -80 -35 -32 -90 -79
-123 -104 -68 -52 -91 -74 -260 -247 -66 -67 -143 -138 -172 -157 -29 -19 -55
-39 -58 -44 -3 -6 -13 -10 -21 -10 -23 0 38 110 131 235 82 110 146 229 184
343 28 84 27 116 -5 141 -15 12 -29 20 -33 20 -3 -1 -55 -27 -114 -58z"/>
</g>
</svg>
